{"extensionsUsed" : ["KHR_materials_transmission"], "accessors" : [{"bufferView" : 0, "byteOffset" : 0, "componentType" : 5123, "count" : 5448, "type" : "SCALAR", "max" : [5447], "min" : [0]}, {"bufferView" : 1, "byteOffset" : 0, "componentType" : 5126, "count" : 5448, "type" : "VEC3", "max" : [0.07477087527513504, 0.0017750000115484, 0.07476739585399628], "min" : [-0.07477087527513504, -9.284061782697144E-18, -0.07476739585399628], "name" : "POSITION"}, {"bufferView" : 1, "byteOffset" : 12, "componentType" : 5126, "count" : 5448, "type" : "VEC3", "max" : [1.0000044107437134, 1.0000044107437134, 0.9999711513519287], "min" : [-1.0000044107437134, -1.0000044107437134, -0.9999711513519287], "name" : "NORMAL"}, {"bufferView" : 1, "byteOffset" : 24, "componentType" : 5126, "count" : 5448, "type" : "VEC2", "max" : [0.9999871850013733, 0.9999872446060181], "min" : [1.2814998626708984E-05, 1.2874603271484375E-05], "name" : "TEXCOORD_0"}, {"bufferView" : 0, "byteOffset" : 10896, "componentType" : 5123, "count" : 11808, "type" : "SCALAR", "max" : [3911], "min" : [0]}, {"bufferView" : 2, "byteOffset" : 0, "componentType" : 5126, "count" : 3912, "type" : "VEC3", "max" : [0.07689279317855835, 0.014999999664723873, 0.07689279317855835], "min" : [-0.07689279317855835, -9.28407005450327E-18, -0.07689279317855835], "name" : "POSITION"}, {"bufferView" : 2, "byteOffset" : 12, "componentType" : 5126, "count" : 3912, "type" : "VEC3", "max" : [1.0000044107437134, 1.0000044107437134, 0.9999961853027344], "min" : [-1.0000044107437134, -1.0000044107437134, -0.9999961853027344], "name" : "NORMAL"}], "asset" : {"generator" : "Aspose.3D 24.4.1", "version" : "2.0"}, "buffers" : [{"uri" : "data:application/octet-stream;base64,", "byteLength" : 302748}], "bufferViews" : [{"buffer" : 0, "byteOffset" : 0, "byteLength" : 34512, "target" : 34963}, {"buffer" : 0, "byteOffset" : 34516, "byteLength" : 174336, "byteStride" : 32, "target" : 34962}, {"buffer" : 0, "byteOffset" : 208856, "byteLength" : 93888, "byteStride" : 24, "target" : 34962}], "cameras" : [{"perspective" : {"aspectRatio" : 1, "yfov" : 0.6911154697478636, "zfar" : 0.4582727253437042, "znear" : 0.3091616928577423}, "type" : "perspective", "name" : ""}], "images" : [{"uri" : "data:image/jpeg;base64,"}, {"uri" : "data:image/jpeg;base64,"}, {"uri" : "data:image/jpeg;base64,"}], "materials" : [{"name" : "Glass Basic Red #2", "extensions" : {"KHR_materials_transmission" : {"transmissionFactor" : 0.03764379024505615, "transmissionTexture" : {"index" : 2}}}, "pbrMetallicRoughness" : {"baseColorFactor" : [1, 1, 1, 1], "baseColorTexture" : {"index" : 1, "texCoord" : 0}, "metallicFactor" : 1, "roughnessFactor" : 1, "metallicRoughnessTexture" : {"index" : 2, "texCoord" : 0}}, "normalTexture" : {"index" : 0, "texCoord" : 0, "scale" : 1}, "emissiveFactor" : [0, 0, 0], "alphaMode" : "OPAQUE", "doubleSided" : true}, {"name" : "Clear Rough Plastic White #1", "pbrMetallicRoughness" : {"baseColorFactor" : [0, 0, 0, 0.0687093734741211], "metallicFactor" : 0, "roughnessFactor" : 0.3872983455657959}, "emissiveFactor" : [0, 0, 0], "alphaMode" : "BLEND", "doubleSided" : true}], "meshes" : [{"primitives" : [{"attributes" : {"POSITION" : 1, "NORMAL" : 2, "TEXCOORD_0" : 3}, "indices" : 0, "material" : 0, "mode" : 4}]}, {"primitives" : [{"attributes" : {"POSITION" : 5, "NORMAL" : 6}, "indices" : 4, "material" : 1, "mode" : 4}]}], "nodes" : [{"camera" : 0, "matrix" : [0.8813941563080441, -1.8452968930660063E-07, -0.47238156025730405, 0, -0.353953397748591, 0.662235464600571, -0.6604249717392853, 0, 0.3128279447555542, 0.7492957711219788, 0.5836904048919678, 0, 0.12003746628761292, 0.29501768946647644, 0.22397206723690033, 1], "name" : "active"}, {"mesh" : 0, "name" : "Plate2"}, {"children" : [1], "name" : "Plate2"}, {"mesh" : 1, "name" : "Plate2"}, {"children" : [3], "name" : "Plate2"}, {"children" : [2, 4], "name" : "Plate2"}, {"children" : [5], "name" : "New Model Set"}, {"children" : [6], "name" : "lux_root"}], "samplers" : [{"magFilter" : 9729, "minFilter" : 9987, "wrapS" : 10497, "wrapT" : 10497}, {"magFilter" : 9729, "minFilter" : 9987, "wrapS" : 10497, "wrapT" : 10497}, {"magFilter" : 9729, "minFilter" : 9987, "wrapS" : 10497, "wrapT" : 10497}], "scene" : 0, "scenes" : [{"nodes" : [0, 7]}], "textures" : [{"sampler" : 0, "source" : 0, "name" : ""}, {"sampler" : 1, "source" : 1, "name" : ""}, {"sampler" : 2, "source" : 2, "name" : ""}]}