{  "asset": {    "version": "2.0",    "generator": "THREE.GLTFExporter"  },  "scenes": [    {      "name": "AuxScene",      "nodes": [        6      ]    }  ],  "scene": 0,  "nodes": [    {      "mesh": 0    },    {      "mesh": 1    },    {      "mesh": 2    },    {      "mesh": 3    },    {      "mesh": 4    },    {      "mesh": 5    },    {      "children": [        0,        1,        2,        3,        4,        5      ]    }  ],  "bufferViews": [    {      "buffer": 0,      "byteOffset": 0,      "byteLength": 72,      "target": 34962,      "byteStride": 12    },    {      "buffer": 0,      "byteOffset": 72,      "byteLength": 72,      "target": 34962,      "byteStride": 12    },    {      "buffer": 0,      "byteOffset": 144,      "byteLength": 48,      "target": 34962,      "byteStride": 8    },    {      "buffer": 0,      "byteOffset": 192,      "byteLength": 72,      "target": 34962,      "byteStride": 12    },    {      "buffer": 0,      "byteOffset": 264,      "byteLength": 72,      "target": 34962,      "byteStride": 12    },    {      "buffer": 0,      "byteOffset": 336,      "byteLength": 48,      "target": 34962,      "byteStride": 8    },    {      "buffer": 0,      "byteOffset": 384,      "byteLength": 72,      "target": 34962,      "byteStride": 12    },    {      "buffer": 0,      "byteOffset": 456,      "byteLength": 72,      "target": 34962,      "byteStride": 12    },    {      "buffer": 0,      "byteOffset": 528,      "byteLength": 48,      "target": 34962,      "byteStride": 8    },    {      "buffer": 0,      "byteOffset": 576,      "byteLength": 440064,      "target": 34962,      "byteStride": 12    },    {      "buffer": 0,      "byteOffset": 440640,      "byteLength": 440064,      "target": 34962,      "byteStride": 12    },    {      "buffer": 0,      "byteOffset": 880704,      "byteLength": 293376,      "target": 34962,      "byteStride": 8    },    {      "buffer": 0,      "byteOffset": 1174080,      "byteLength": 56448,      "target": 34962,      "byteStride": 12    },    {      "buffer": 0,      "byteOffset": 1230528,      "byteLength": 56448,      "target": 34962,      "byteStride": 12    },    {      "buffer": 0,      "byteOffset": 1286976,      "byteLength": 37632,      "target": 34962,      "byteStride": 8    },    {      "buffer": 0,      "byteOffset": 1324608,      "byteLength": 2304,      "target": 34962,      "byteStride": 12    },    {      "buffer": 0,      "byteOffset": 1326912,      "byteLength": 2304,      "target": 34962,      "byteStride": 12    },    {      "buffer": 0,      "byteOffset": 1329216,      "byteLength": 1536,      "target": 34962,      "byteStride": 8    }  ],  "buffers": [    {      "byteLength": 1330752,      "uri": "data:application/octet-stream;base64,"    }  ],  "accessors": [    {      "bufferView": 0,      "componentType": 5126,      "count": 6,      "max": [        58.05889892578125,        58.775634765625,        -8.697555813341751e-7      ],      "min": [        -58.67771911621094,        -57.96098327636719,        -8.697555813341751e-7      ],      "type": "VEC3"    },    {      "bufferView": 1,      "componentType": 5126,      "count": 6,      "max": [        0,        0,        1      ],      "min": [        0,        0,        1      ],      "type": "VEC3"    },    {      "bufferView": 2,      "componentType": 5126,      "count": 6,      "max": [        1,        1      ],      "min": [        0,        0      ],      "type": "VEC2"    },    {      "bufferView": 3,      "componentType": 5126,      "count": 6,      "max": [        58.05889892578125,        -54.4591178894043,        58.368309020996094      ],      "min": [        -58.67771911621094,        -54.45912551879883,        -58.368309020996094      ],      "type": "VEC3"    },    {      "bufferView": 4,      "componentType": 5126,      "count": 6,      "max": [        0,        -1,        0      ],      "min": [        0,        -1,        0      ],      "type": "VEC3"    },    {      "bufferView": 5,      "componentType": 5126,      "count": 6,      "max": [        1,        1      ],      "min": [        0,        0      ],      "type": "VEC2"    },    {      "bufferView": 6,      "componentType": 5126,      "count": 6,      "max": [        54.18611526489258,        58.775634765625,        58.368309020996094      ],      "min": [        54.18611145019531,        -57.96098327636719,        -58.368309020996094      ],      "type": "VEC3"    },    {      "bufferView": 7,      "componentType": 5126,      "count": 6,      "max": [        1,        0,        0      ],      "min": [        1,        0,        0      ],      "type": "VEC3"    },    {      "bufferView": 8,      "componentType": 5126,      "count": 6,      "max": [        1,        1      ],      "min": [        0,        0      ],      "type": "VEC2"    },    {      "bufferView": 9,      "componentType": 5126,      "count": 36672,      "max": [        58.67772674560547,        58.398738861083984,        0.23636455833911896      ],      "min": [        -58.49665069580078,        -58.775634765625,        -0.3669012784957886      ],      "type": "VEC3"    },    {      "bufferView": 10,      "componentType": 5126,      "count": 36672,      "max": [        0.7762077450752258,        0.7762077450752258,        1      ],      "min": [        -0.7762077450752258,        -0.7762077450752258,        -1      ],      "type": "VEC3"    },    {      "bufferView": 11,      "componentType": 5126,      "count": 36672,      "max": [        0.8749961853027344,        1      ],      "min": [        0.12500381469726562,        0      ],      "type": "VEC2"    },    {      "bufferView": 12,      "componentType": 5126,      "count": 4704,      "max": [        14.542572975158691,        15.259306907653809,        3.8833656311035156      ],      "min": [        -15.161393165588379,        -14.444659233093262,        0.9445788860321045      ],      "type": "VEC3"    },    {      "bufferView": 13,      "componentType": 5126,      "count": 4704,      "max": [        0.99993896484375,        0.99993896484375,        1      ],      "min": [        -0.99993896484375,        -0.99993896484375,        -1      ],      "type": "VEC3"    },    {      "bufferView": 14,      "componentType": 5126,      "count": 4704,      "max": [        1,        1      ],      "min": [        0,        0.010010071098804474      ],      "type": "VEC2"    },    {      "bufferView": 15,      "componentType": 5126,      "count": 192,      "max": [        14.118372917175293,        14.83510684967041,        1.0272296667099      ],      "min": [        -14.73719310760498,        -14.020459175109863,        1.0272296667099      ],      "type": "VEC3"    },    {      "bufferView": 16,      "componentType": 5126,      "count": 192,      "max": [        0,        0,        1      ],      "min": [        0,        0,        1      ],      "type": "VEC3"    },    {      "bufferView": 17,      "componentType": 5126,      "count": 192,      "max": [        0.9002349972724915,        0.8362071514129639      ],      "min": [        0.15485091507434845,        0.08206427097320557      ],      "type": "VEC2"    }  ],  "materials": [    {      "pbrMetallicRoughness": {        "baseColorFactor": [          0.000311145510816,          0.001570433436432,          0.005209538375504924,          1        ],        "metallicFactor": 0.5,        "roughnessFactor": 0.5      },      "doubleSided": true,      "name": "mat0"    },    {      "pbrMetallicRoughness": {        "baseColorFactor": [          0.000311145510816,          0.001570433436432,          0.005209538375504924,          1        ],        "metallicFactor": 0.5,        "roughnessFactor": 0.5      },      "doubleSided": true,      "name": "mat1"    },    {      "pbrMetallicRoughness": {        "baseColorFactor": [          0.6038273388475408,          0.6038273388475408,          0.6038273388475408,          1        ],        "metallicFactor": 0.5,        "roughnessFactor": 0.5      },      "doubleSided": true,      "name": "mat2"    },    {      "pbrMetallicRoughness": {        "baseColorFactor": [          0.6038273388475408,          0.6038273388475408,          0.6038273388475408,          1        ],        "metallicFactor": 0.5,        "roughnessFactor": 0.5      },      "doubleSided": true,      "name": "mat3"    }  ],  "meshes": [    {      "primitives": [        {          "mode": 4,          "attributes": {            "POSITION": 0,            "NORMAL": 1,            "TEXCOORD_0": 2          },          "material": 0        }      ]    },    {      "primitives": [        {          "mode": 4,          "attributes": {            "POSITION": 3,            "NORMAL": 4,            "TEXCOORD_0": 5          },          "material": 0        }      ]    },    {      "primitives": [        {          "mode": 4,          "attributes": {            "POSITION": 6,            "NORMAL": 7,            "TEXCOORD_0": 8          },          "material": 0        }      ]    },    {      "primitives": [        {          "mode": 4,          "attributes": {            "POSITION": 9,            "NORMAL": 10,            "TEXCOORD_0": 11          },          "material": 1        }      ]    },    {      "primitives": [        {          "mode": 4,          "attributes": {            "POSITION": 12,            "NORMAL": 13,            "TEXCOORD_0": 14          },          "material": 2        }      ]    },    {      "primitives": [        {          "mode": 4,          "attributes": {            "POSITION": 15,            "NORMAL": 16,            "TEXCOORD_0": 17          },          "material": 3        }      ]    }  ]}