<svg width="504" height="292" viewBox="0 0 504 292" fill="none" xmlns="http://www.w3.org/2000/svg">
<path d="M178.568 171.323C193.056 145.836 220.693 126.267 249.949 128.152C228.369 151.619 215.785 181.964 214.424 213.816C213.944 226.102 214.689 239.817 206.531 249.017C201.455 254.741 193.697 257.513 186.069 258.095C178.44 258.676 170.814 257.298 163.287 255.926L161.461 256.486C160.766 227.177 164.079 196.81 178.568 171.323Z" fill="#F0F0F0"/>
<path d="M249.991 128.766C228.356 139.181 209.909 156.575 198.585 177.788C196.136 182.374 194.052 187.24 193.143 192.384C192.233 197.531 192.868 202.43 194.626 207.318C196.233 211.787 198.395 216.172 198.887 220.953C199.407 225.994 197.552 230.706 194.214 234.446C190.13 239.023 184.645 241.858 179.185 244.445C173.122 247.317 166.779 250.204 162.485 255.564C161.965 256.214 160.988 255.369 161.507 254.72C168.978 245.394 181.766 243.641 190.634 236.129C194.772 232.623 197.879 227.849 197.683 222.256C197.511 217.365 195.286 212.841 193.62 208.33C191.871 203.594 190.998 198.832 191.625 193.782C192.267 188.616 194.166 183.659 196.486 179.03C201.719 168.591 208.88 159.008 217.084 150.723C226.512 141.2 237.5 133.361 249.572 127.543C250.32 127.183 250.733 128.408 249.991 128.766Z" fill="white"/>
<path d="M201.898 170.698C198.582 168.273 196.235 164.748 195.278 160.753C194.32 156.757 194.814 152.551 196.671 148.886C197.05 148.146 198.218 148.699 197.839 149.44C196.103 152.85 195.644 156.768 196.543 160.487C197.442 164.205 199.641 167.48 202.743 169.72C203.416 170.208 202.568 171.183 201.898 170.698Z" fill="white"/>
<path d="M193.513 205.159C201.824 203.944 209.371 199.642 214.651 193.11C215.173 192.463 216.151 193.308 215.629 193.955C210.122 200.742 202.259 205.203 193.607 206.447C192.783 206.565 192.693 205.276 193.513 205.159Z" fill="white"/>
<path d="M227.15 142.79C228.237 143.996 229.608 144.913 231.137 145.458C232.667 146.004 234.308 146.16 235.913 145.915C236.736 145.786 236.825 147.076 236.008 147.203C234.233 147.467 232.421 147.291 230.729 146.692C229.038 146.094 227.519 145.09 226.305 143.769C226.18 143.654 226.104 143.495 226.092 143.326C226.079 143.157 226.132 142.989 226.238 142.857C226.351 142.728 226.51 142.649 226.68 142.637C226.851 142.624 227.02 142.679 227.15 142.79Z" fill="white"/>
<path d="M308.159 208.553C307.648 208.648 307.136 208.743 306.62 208.848C299.751 210.158 292.999 212.024 286.431 214.428C285.921 214.606 285.406 214.794 284.901 214.986C269.141 220.946 254.624 229.781 242.088 241.04C237.104 245.525 232.468 250.383 228.221 255.571C222.357 262.737 216.568 270.973 208.904 275.645C208.109 276.142 207.285 276.588 206.436 276.983L162.286 258.67C162.206 258.578 162.122 258.496 162.042 258.404L160.246 257.753C160.446 257.47 160.66 257.181 160.861 256.898C160.976 256.734 161.102 256.573 161.217 256.409C161.297 256.3 161.378 256.192 161.444 256.089C161.471 256.053 161.498 256.017 161.52 255.991C161.586 255.889 161.658 255.801 161.72 255.708C162.911 254.089 164.116 252.475 165.334 250.867C165.338 250.857 165.338 250.857 165.352 250.851C174.663 238.622 185.078 227.062 196.915 217.451C197.271 217.162 197.631 216.862 198.008 216.582C203.368 212.279 209.07 208.421 215.059 205.048C218.344 203.211 221.719 201.541 225.173 200.046C234.105 196.199 243.585 193.781 253.268 192.881C272.571 191.088 292.233 195.489 307.037 207.616C307.416 207.926 307.785 208.233 308.159 208.553Z" fill="#F0F0F0"/>
<path d="M307.827 209.073C284.282 204.363 259.081 207.144 237.267 217.264C232.551 219.452 227.957 222.082 224.134 225.642C220.309 229.203 217.867 233.498 216.327 238.459C214.92 242.995 214.006 247.797 211.52 251.912C208.9 256.249 204.582 258.895 199.665 259.871C193.649 261.066 187.562 260.028 181.645 258.806C175.075 257.449 168.273 255.935 161.617 257.63C160.811 257.835 160.539 256.572 161.344 256.367C172.924 253.419 184.191 259.718 195.794 259.059C201.209 258.752 206.563 256.81 209.774 252.226C212.582 248.218 213.529 243.266 214.915 238.661C216.369 233.826 218.54 229.499 222.081 225.844C225.704 222.107 230.204 219.292 234.844 216.993C245.307 211.808 256.795 208.468 268.333 206.792C281.594 204.865 295.087 205.221 308.229 207.844C309.042 208.007 308.635 209.234 307.827 209.073Z" fill="white"/>
<path d="M244.185 213.601C242.997 209.668 243.246 205.44 244.887 201.674C246.528 197.907 249.455 194.846 253.144 193.038C253.892 192.675 254.492 193.82 253.743 194.184C250.304 195.861 247.578 198.712 246.057 202.223C244.536 205.734 244.32 209.672 245.448 213.328C245.692 214.123 244.428 214.391 244.185 213.601Z" fill="white"/>
<path d="M216.738 236.065C224.105 240.099 232.722 241.208 240.87 239.171C241.677 238.969 241.949 240.232 241.143 240.434C232.659 242.538 223.695 241.365 216.038 237.151C215.309 236.748 216.013 235.665 216.738 236.065Z" fill="white"/>
<path d="M281.145 206.519C281.288 208.136 281.83 209.693 282.723 211.05C283.616 212.406 284.831 213.519 286.261 214.29C286.995 214.682 286.29 215.766 285.561 215.376C283.985 214.517 282.644 213.286 281.654 211.79C280.664 210.293 280.056 208.577 279.882 206.792C279.851 206.625 279.886 206.452 279.978 206.31C280.07 206.167 280.212 206.065 280.377 206.024C280.545 205.988 280.719 206.021 280.863 206.113C281.007 206.206 281.108 206.352 281.145 206.519Z" fill="white"/>
<path d="M120.21 164.99C137.493 164.99 151.503 150.98 151.503 133.698C151.503 116.415 137.493 102.405 120.21 102.405C102.928 102.405 88.918 116.415 88.918 133.698C88.918 150.98 102.928 164.99 120.21 164.99Z" fill="#FFD0D7"/>
<path d="M112.205 163.457C112.071 163.163 111.938 162.868 111.805 162.571C111.856 162.573 111.907 162.58 111.958 162.582L112.205 163.457Z" fill="#2F2E41"/>
<path d="M88.0515 103.827C89.6342 102.565 91.484 101.403 93.5075 101.469C95.531 101.534 97.5829 103.361 97.1637 105.342C100.88 98.7612 106.796 93.6998 113.873 91.0462C120.95 88.3926 128.735 88.3165 135.862 90.8311C140.892 92.6054 145.824 96.1551 146.979 101.362C147.275 102.698 147.339 104.163 148.174 105.249C149.226 106.617 151.239 106.927 152.896 106.445C152.913 106.44 152.93 106.436 152.946 106.431C153.226 106.335 153.528 106.326 153.814 106.404C154.099 106.482 154.355 106.644 154.547 106.868C154.74 107.093 154.86 107.371 154.893 107.665C154.926 107.959 154.87 108.256 154.733 108.518L153.31 111.172C155.103 111.572 156.967 111.532 158.742 111.056C159.037 110.979 159.349 110.995 159.634 111.101C159.92 111.208 160.166 111.401 160.337 111.652C160.509 111.904 160.599 112.203 160.594 112.508C160.59 112.813 160.491 113.109 160.311 113.355C155.619 119.797 147.78 123.957 139.78 123.908C134.094 123.874 128.35 121.914 122.817 123.222C120.676 123.727 118.676 124.706 116.963 126.086C115.25 127.465 113.867 129.211 112.917 131.195C111.966 133.179 111.472 135.35 111.47 137.549C111.468 139.749 111.959 141.921 112.906 143.906C111.206 142.047 107.92 142.487 106.181 144.31C104.443 146.133 103.992 148.854 104.168 151.368C104.436 155.211 105.942 158.833 107.529 162.359C94.2179 161.94 81.6275 152.602 77.3895 139.972C73.1338 127.29 77.5939 112.17 88.0515 103.827Z" fill="#2F2E41"/>
<path d="M192.485 229.713C187.586 206.025 181.462 198.128 181.462 198.128L179.123 196.313L176.309 194.128L176.323 193.847L175.655 193.62L175.499 193.499L175.242 193.301L175.201 193.346L175.113 193.436L162.383 189.109L146.232 183.623L138.753 173.901C137.534 172.318 135.966 171.039 134.171 170.163C132.376 169.287 130.402 168.839 128.404 168.854L104.519 169.031C101.289 169.055 98.1853 170.286 95.8174 172.482L80.1179 187.045L55.6549 198.728L55.6137 198.687L55.3568 198.87L51.577 200.677L51.733 201.489L49.3936 203.177C49.3936 203.177 43.2698 210.526 38.3708 232.567C37.1246 238.175 36.5111 250.205 36.2897 265.03C36.2786 265.78 36.4166 266.525 36.6959 267.221C36.9751 267.917 37.39 268.55 37.9163 269.085C38.4426 269.619 39.0699 270.044 39.7617 270.333C40.4534 270.623 41.1959 270.772 41.9459 270.773H172.607L188.915 270.773C189.665 270.772 190.407 270.623 191.098 270.334C191.79 270.044 192.417 269.62 192.943 269.087C193.469 268.553 193.884 267.92 194.164 267.225C194.443 266.529 194.582 265.785 194.572 265.036C194.356 248.904 193.742 235.795 192.485 229.713Z" fill="#3F3D56"/>
<path opacity="0.2" d="M67.0898 222.561L75.8666 270.313L81.1329 270.772L67.0898 222.561Z" fill="black"/>
<path opacity="0.2" d="M163.766 218.959L154.989 270.279L149.723 270.772L163.766 218.959Z" fill="black"/>
<path d="M88.4398 57.2193C85.8969 58.2811 83.2434 57.1174 82.1306 54.4525C81.0008 51.7467 82.0561 49.0001 84.6397 47.9212C87.2236 46.8423 89.8298 48.0088 90.9778 50.7582C92.1087 53.4663 91.0649 56.1231 88.4398 57.2193ZM83.5686 42.5955L81.5467 43.4398C81.0416 43.6482 80.4767 43.6594 79.9637 43.4713C79.4507 43.2831 79.027 42.9093 78.7764 42.4237L78.6764 42.2281C76.5009 38.3046 76.2518 33.536 77.94 28.0625C79.5039 23.1524 80.1535 19.6992 78.8471 16.5708C77.3368 12.9537 74.1116 11.8207 69.9988 13.462C68.4037 14.1281 67.8961 14.1175 66.6408 15.3628C66.3677 15.6369 66.0422 15.8533 65.6837 15.999C65.3253 16.1447 64.9411 16.2167 64.5542 16.2107C64.1802 16.2063 63.8109 16.1266 63.4683 15.9764C63.1257 15.8262 62.8169 15.6085 62.5603 15.3364C62.0658 14.812 61.7888 14.1195 61.7852 13.3987C61.7816 12.678 62.0516 11.9827 62.5407 11.4533C64.6506 9.24461 67.1955 7.49724 70.0147 6.32147C78.8514 2.63158 83.2998 8.07917 85.3355 12.9543C87.3266 17.7226 86.2066 22.1469 84.4069 27.8768C82.8988 32.638 82.9867 36.1659 84.6998 39.6738C84.8235 39.939 84.8923 40.2265 84.9021 40.5189C84.9119 40.8114 84.8625 41.1028 84.7568 41.3757C84.6512 41.6486 84.4915 41.8973 84.2873 42.1069C84.0831 42.3165 83.8386 42.4827 83.5686 42.5955Z" fill="#0B2848"/>
<path d="M243.249 44.8369C235.567 44.8369 228.2 47.8884 222.768 53.3202C217.337 58.752 214.285 66.119 214.285 73.8007C214.285 81.4824 217.337 88.8495 222.768 94.2812C228.2 99.713 235.567 102.765 243.249 102.765H459.098C466.78 102.765 474.147 99.713 479.579 94.2812C485.01 88.8495 488.062 81.4824 488.062 73.8007C488.062 66.119 485.01 58.752 479.579 53.3202C474.147 47.8884 466.78 44.8369 459.098 44.8369H243.249Z" fill="#E5E5E5"/>
<path d="M243.251 50.6982C237.123 50.6982 231.247 53.1322 226.915 57.4647C222.582 61.7972 220.148 67.6733 220.148 73.8003C220.148 79.9274 222.582 85.8035 226.915 90.136C231.247 94.4684 237.123 96.9024 243.251 96.9024H459.1C465.227 96.9024 471.103 94.4684 475.435 90.136C479.768 85.8035 482.202 79.9274 482.202 73.8003C482.202 67.6733 479.768 61.7972 475.435 57.4647C471.103 53.1322 465.227 50.6982 459.1 50.6982H243.251Z" fill="white"/>
<path d="M290.929 87.6148H247.983C247.846 87.6157 247.711 87.5896 247.585 87.5381C247.459 87.4865 247.344 87.4104 247.247 87.3143C247.15 87.2181 247.073 87.1038 247.021 86.9778C246.968 86.8519 246.941 86.7168 246.941 86.5803C246.941 86.4439 246.968 86.3088 247.021 86.1829C247.073 86.0569 247.15 85.9425 247.247 85.8464C247.344 85.7502 247.459 85.6742 247.585 85.6226C247.711 85.5711 247.846 85.545 247.983 85.5459H290.929C291.202 85.5478 291.463 85.6576 291.656 85.8514C291.848 86.0452 291.956 86.3072 291.956 86.5803C291.956 86.8535 291.848 87.1155 291.656 87.3093C291.463 87.5031 291.202 87.6129 290.929 87.6148Z" fill="#0B2848"/>
<path d="M345.405 87.9595H302.459C302.323 87.9604 302.188 87.9344 302.061 87.8828C301.935 87.8312 301.82 87.7552 301.723 87.659C301.627 87.5629 301.55 87.4485 301.497 87.3226C301.445 87.1966 301.418 87.0615 301.418 86.9251C301.418 86.7886 301.445 86.6535 301.497 86.5276C301.55 86.4016 301.627 86.2873 301.723 86.1911C301.82 86.095 301.935 86.0189 302.061 85.9674C302.188 85.9158 302.323 85.8897 302.459 85.8906H345.405C345.542 85.8897 345.677 85.9158 345.803 85.9674C345.93 86.0189 346.045 86.095 346.141 86.1911C346.238 86.2873 346.315 86.4016 346.368 86.5276C346.42 86.6535 346.447 86.7886 346.447 86.9251C346.447 87.0615 346.42 87.1966 346.368 87.3226C346.315 87.4485 346.238 87.5629 346.141 87.659C346.045 87.7552 345.93 87.8312 345.803 87.8828C345.677 87.9344 345.542 87.9604 345.405 87.9595Z" fill="#0B2848"/>
<path d="M399.887 88.3032H356.941C356.668 88.3014 356.407 88.1916 356.215 87.9978C356.022 87.804 355.914 87.5419 355.914 87.2688C355.914 86.9957 356.022 86.7336 356.215 86.5398C356.407 86.346 356.668 86.2363 356.941 86.2344H399.887C400.024 86.2335 400.159 86.2595 400.285 86.3111C400.412 86.3627 400.527 86.4387 400.623 86.5349C400.72 86.631 400.797 86.7454 400.85 86.8713C400.902 86.9973 400.929 87.1324 400.929 87.2688C400.929 87.4052 400.902 87.5403 400.85 87.6663C400.797 87.7923 400.72 87.9066 400.623 88.0028C400.527 88.0989 400.412 88.175 400.285 88.2265C400.159 88.2781 400.024 88.3042 399.887 88.3032Z" fill="#0B2848"/>
<path d="M454.364 88.6489H411.418C411.145 88.6471 410.884 88.5373 410.691 88.3435C410.499 88.1497 410.391 87.8876 410.391 87.6145C410.391 87.3414 410.499 87.0793 410.691 86.8855C410.884 86.6917 411.145 86.5819 411.418 86.5801H454.364C454.637 86.5819 454.898 86.6917 455.091 86.8855C455.283 87.0793 455.391 87.3414 455.391 87.6145C455.391 87.8876 455.283 88.1497 455.091 88.3435C454.898 88.5373 454.637 88.6471 454.364 88.6489Z" fill="#0B2848"/>
<path d="M269.361 78.0945C273.769 78.0945 277.343 74.5209 277.343 70.1127C277.343 65.7044 273.769 62.1309 269.361 62.1309C264.952 62.1309 261.379 65.7044 261.379 70.1127C261.379 74.5209 264.952 78.0945 269.361 78.0945Z" fill="#0B2848"/>
<path d="M324.169 78.0945C328.578 78.0945 332.151 74.5209 332.151 70.1127C332.151 65.7044 328.578 62.1309 324.169 62.1309C319.761 62.1309 316.188 65.7044 316.188 70.1127C316.188 74.5209 319.761 78.0945 324.169 78.0945Z" fill="#0B2848"/>
<path d="M378.974 78.0945C383.382 78.0945 386.956 74.5209 386.956 70.1127C386.956 65.7044 383.382 62.1309 378.974 62.1309C374.566 62.1309 370.992 65.7044 370.992 70.1127C370.992 74.5209 374.566 78.0945 378.974 78.0945Z" fill="#0B2848"/>
<path d="M433.787 78.0945C438.195 78.0945 441.768 74.5209 441.768 70.1127C441.768 65.7044 438.195 62.1309 433.787 62.1309C429.378 62.1309 425.805 65.7044 425.805 70.1127C425.805 74.5209 429.378 78.0945 433.787 78.0945Z" fill="#0B2848"/>
</svg>
