<svg width="467" height="468" viewBox="0 0 467 468" fill="none" xmlns="http://www.w3.org/2000/svg">
<g filter="url(#filter0_b_1256_3767)">
<path d="M440.5 1.00001H20.5C20.4446 1.00001 20.3893 1.00019 20.3342 1.00054C5.26992 1.09711 1.16606 14.3576 1 21V391.5C1 399.5 7.6 407 22 407H34.5C41.3333 407.333 55 411.9 55 427.5V447.5C55 454 59.4 465.2 73 466H253.5H440.5C452.5 466.5 466 466 466 434V22.5C466.4 2.9 449.5 1.00004 440.5 1.00001Z" fill="white" fill-opacity="0.15"/>
<path d="M0.500156 20.9875L0.5 20.9875V21V391.5C0.5 395.644 2.21275 399.661 5.77991 402.634C9.34218 405.603 14.716 407.5 22 407.5H34.4874C37.8286 407.665 42.8462 408.868 47.0167 411.928C51.1697 414.975 54.5 419.872 54.5 427.5V447.5C54.5 450.846 55.6284 455.38 58.5008 459.189C61.3863 463.014 66.0197 466.09 72.9706 466.499L72.9853 466.5H73H253.5H440.489C446.467 466.749 453.031 466.771 458.07 462.572C463.121 458.362 466.5 450.041 466.5 434V22.5057C466.601 17.5345 465.605 13.6499 463.885 10.6247C462.163 7.59798 459.734 5.46194 457.017 3.96226C451.601 0.973207 445.018 0.500026 440.5 0.500011H20.5C20.4435 0.500012 20.3872 0.500192 20.331 0.500552C12.6258 0.549948 7.68743 3.9779 4.67156 8.25759C1.6726 12.5133 0.585065 17.5912 0.500156 20.9875Z" stroke="white" stroke-opacity="0.25"/>
</g>
<defs>
<filter id="filter0_b_1256_3767" x="-36" y="-36" width="539.007" height="539.091" filterUnits="userSpaceOnUse" color-interpolation-filters="sRGB">
<feFlood flood-opacity="0" result="BackgroundImageFix"/>
<feGaussianBlur in="BackgroundImageFix" stdDeviation="18"/>
<feComposite in2="SourceAlpha" operator="in" result="effect1_backgroundBlur_1256_3767"/>
<feBlend mode="normal" in="SourceGraphic" in2="effect1_backgroundBlur_1256_3767" result="shape"/>
</filter>
</defs>
</svg>
