<svg width="36" height="36" viewBox="0 0 36 36" fill="none" xmlns="http://www.w3.org/2000/svg">
<rect width="36" height="36" rx="18" fill="#EBEDF0"/>
<path d="M24.7499 12.5V22.25C24.7499 22.4489 24.6709 22.6397 24.5303 22.7803C24.3896 22.921 24.1988 23 23.9999 23C23.801 23 23.6103 22.921 23.4696 22.7803C23.3289 22.6397 23.2499 22.4489 23.2499 22.25V14.3103L12.5306 25.0306C12.3898 25.1714 12.199 25.2504 11.9999 25.2504C11.8009 25.2504 11.61 25.1714 11.4693 25.0306C11.3286 24.8899 11.2495 24.699 11.2495 24.5C11.2495 24.301 11.3286 24.1101 11.4693 23.9694L22.1896 13.25H14.2499C14.051 13.25 13.8603 13.171 13.7196 13.0303C13.5789 12.8897 13.4999 12.6989 13.4999 12.5C13.4999 12.3011 13.5789 12.1103 13.7196 11.9697C13.8603 11.829 14.051 11.75 14.2499 11.75H23.9999C24.1988 11.75 24.3896 11.829 24.5303 11.9697C24.6709 12.1103 24.7499 12.3011 24.7499 12.5Z" fill="#0B2848"/>
</svg>
