<svg width="20" height="21" viewBox="0 0 20 21" fill="none" xmlns="http://www.w3.org/2000/svg">
<g clip-path="url(#clip0_628_10329)">
<path d="M15.6112 20.1536C14.5225 21.2091 13.3337 21.0424 12.1894 20.5425C10.9785 20.0314 9.86748 20.0092 8.58987 20.5425C6.99007 21.2313 6.14573 21.0313 5.1903 20.1536C-0.231242 14.5654 0.568658 6.05541 6.72344 5.74434C8.22325 5.82211 9.26756 6.56646 10.1452 6.63312C11.4562 6.36648 12.7116 5.59991 14.1114 5.6999C15.789 5.83322 17.0555 6.4998 17.8887 7.69965C14.4225 9.77716 15.2446 14.3433 18.422 15.6209C17.7887 17.2873 16.9666 18.9427 15.6001 20.1647L15.6112 20.1536ZM10.0341 5.67768C9.86748 3.20022 11.8783 1.15603 14.1892 0.956055C14.5113 3.82236 11.5895 5.95542 10.0341 5.67768Z" fill="black"/>
</g>
<defs>
<clipPath id="clip0_628_10329">
<rect width="20" height="20" fill="white" transform="translate(0 0.954102)"/>
</clipPath>
</defs>
</svg>
