<svg width="40" height="40" viewBox="0 0 40 40" fill="none" xmlns="http://www.w3.org/2000/svg">
<g id="ArrowUpRight">
<path id="Vector" d="M31.4616 9.75838V25.6159C31.4616 25.9394 31.3331 26.2497 31.1044 26.4784C30.8756 26.7072 30.5653 26.8357 30.2418 26.8357C29.9183 26.8357 29.608 26.7072 29.3793 26.4784C29.1505 26.2497 29.022 25.9394 29.022 25.6159V12.7027L11.5879 30.1383C11.359 30.3672 11.0486 30.4958 10.7249 30.4958C10.4012 30.4958 10.0908 30.3672 9.86187 30.1383C9.63298 29.9095 9.50439 29.599 9.50439 29.2753C9.50439 28.9516 9.63298 28.6412 9.86187 28.4123L27.2975 10.9782H14.3843C14.0608 10.9782 13.7505 10.8497 13.5218 10.6209C13.293 10.3922 13.1645 10.0819 13.1645 9.75838C13.1645 9.43487 13.293 9.12461 13.5218 8.89585C13.7505 8.66709 14.0608 8.53857 14.3843 8.53857H30.2418C30.5653 8.53857 30.8756 8.66709 31.1044 8.89585C31.3331 9.12461 31.4616 9.43487 31.4616 9.75838Z" fill="url(#paint0_linear_750_39804)"/>
</g>
<defs>
<linearGradient id="paint0_linear_750_39804" x1="29.8345" y1="13.0112" x2="-4.72671" y2="34.1546" gradientUnits="userSpaceOnUse">
<stop stop-color="#0B2848"/>
<stop offset="1" stop-color="#0B2848" stop-opacity="0"/>
</linearGradient>
</defs>
</svg>
