<svg width="16" height="17" viewBox="0 0 16 17" fill="none" xmlns="http://www.w3.org/2000/svg">
<g id="CaretDown">
<path id="Vector" d="M13.3537 6.75365L8.35366 11.7537C8.30722 11.8001 8.25208 11.837 8.19138 11.8622C8.13068 11.8873 8.06561 11.9003 7.99991 11.9003C7.9342 11.9003 7.86913 11.8873 7.80844 11.8622C7.74774 11.837 7.69259 11.8001 7.64616 11.7537L2.64616 6.75365C2.57615 6.68372 2.52847 6.5946 2.50914 6.49756C2.48982 6.40051 2.49972 6.29992 2.53759 6.20851C2.57547 6.1171 2.63962 6.03898 2.72191 5.98404C2.80421 5.92911 2.90096 5.89982 2.99991 5.8999H12.9999C13.0989 5.89982 13.1956 5.92911 13.2779 5.98404C13.3602 6.03898 13.4243 6.1171 13.4622 6.20851C13.5001 6.29992 13.51 6.40051 13.4907 6.49756C13.4713 6.5946 13.4237 6.68372 13.3537 6.75365Z" fill="black"/>
</g>
</svg>
