<svg width="33" height="33" viewBox="0 0 33 33" fill="none" xmlns="http://www.w3.org/2000/svg">
<path d="M27.4985 4.54882H11.4985C11.2333 4.54882 10.9789 4.65418 10.7914 4.84171C10.6038 5.02925 10.4985 5.2836 10.4985 5.54882V10.5488H5.49849C5.23327 10.5488 4.97892 10.6542 4.79138 10.8417C4.60385 11.0293 4.49849 11.2836 4.49849 11.5488V27.5488C4.49849 27.814 4.60385 28.0684 4.79138 28.2559C4.97892 28.4435 5.23327 28.5488 5.49849 28.5488H21.4985C21.7637 28.5488 22.0181 28.4435 22.2056 28.2559C22.3931 28.0684 22.4985 27.814 22.4985 27.5488V22.5488H27.4985C27.7637 22.5488 28.0181 22.4435 28.2056 22.2559C28.3931 22.0684 28.4985 21.814 28.4985 21.5488V5.54882C28.4985 5.2836 28.3931 5.02925 28.2056 4.84171C28.0181 4.65418 27.7637 4.54882 27.4985 4.54882ZM20.4985 26.5488H6.49849V12.5488H20.4985V26.5488ZM26.4985 20.5488H22.4985V11.5488C22.4985 11.2836 22.3931 11.0293 22.2056 10.8417C22.0181 10.6542 21.7637 10.5488 21.4985 10.5488H12.4985V6.54882H26.4985V20.5488Z" fill="#0B2848"/>
</svg>
