<svg width="15" height="16" viewBox="0 0 15 16" fill="none" xmlns="http://www.w3.org/2000/svg">
<g id="Copy">
<path id="Vector" d="M2.34375 2.375H9.84375C9.96807 2.375 10.0873 2.42439 10.1752 2.51229C10.2631 2.6002 10.3125 2.71943 10.3125 2.84375V5.1875H12.6562C12.7806 5.1875 12.8998 5.23689 12.9877 5.32479C13.0756 5.4127 13.125 5.53193 13.125 5.65625V13.1562C13.125 13.2806 13.0756 13.3998 12.9877 13.4877C12.8998 13.5756 12.7806 13.625 12.6562 13.625H5.15625C5.03193 13.625 4.9127 13.5756 4.82479 13.4877C4.73689 13.3998 4.6875 13.2806 4.6875 13.1562V10.8125H2.34375C2.21943 10.8125 2.1002 10.7631 2.01229 10.6752C1.92439 10.5873 1.875 10.4681 1.875 10.3438V2.84375C1.875 2.71943 1.92439 2.6002 2.01229 2.51229C2.1002 2.42439 2.21943 2.375 2.34375 2.375ZM5.625 12.6875H12.1875V6.125H5.625V12.6875ZM2.8125 9.875H4.6875V5.65625C4.6875 5.53193 4.73689 5.4127 4.82479 5.32479C4.9127 5.23689 5.03193 5.1875 5.15625 5.1875H9.375V3.3125H2.8125V9.875Z" fill="#D9D9D9"/>
</g>
</svg>
