<svg width="36" height="37" viewBox="0 0 36 37" fill="none" xmlns="http://www.w3.org/2000/svg">
<g id="X">
<path id="Vector" d="M28.9211 27.8292C29.0256 27.9337 29.1085 28.0578 29.1651 28.1944C29.2216 28.3309 29.2508 28.4773 29.2508 28.6251C29.2508 28.773 29.2216 28.9193 29.1651 29.0559C29.1085 29.1925 29.0256 29.3166 28.9211 29.4211C28.8166 29.5256 28.6925 29.6085 28.5559 29.6651C28.4193 29.7216 28.273 29.7508 28.1251 29.7508C27.9773 29.7508 27.8309 29.7216 27.6944 29.6651C27.5578 29.6085 27.4337 29.5256 27.3292 29.4211L18.0001 20.0906L8.67107 29.4211C8.45998 29.6322 8.17367 29.7508 7.87514 29.7508C7.5766 29.7508 7.2903 29.6322 7.0792 29.4211C6.8681 29.21 6.74951 28.9237 6.74951 28.6251C6.74951 28.3266 6.8681 28.0403 7.0792 27.8292L16.4097 18.5001L7.0792 9.17107C6.8681 8.95998 6.74951 8.67367 6.74951 8.37514C6.74951 8.0766 6.8681 7.7903 7.0792 7.5792C7.2903 7.3681 7.5766 7.24951 7.87514 7.24951C8.17367 7.24951 8.45998 7.3681 8.67107 7.5792L18.0001 16.9097L27.3292 7.5792C27.5403 7.3681 27.8266 7.24951 28.1251 7.24951C28.4237 7.24951 28.71 7.3681 28.9211 7.5792C29.1322 7.7903 29.2508 8.0766 29.2508 8.37514C29.2508 8.67367 29.1322 8.95998 28.9211 9.17107L19.5906 18.5001L28.9211 27.8292Z" fill="white"/>
</g>
</svg>
