<svg width="28" height="31" viewBox="0 0 28 31" fill="none" xmlns="http://www.w3.org/2000/svg">
<g id="FacebookLogo" filter="url(#filter0_d_828_7966)">
<path id="Vector" d="M23.75 12.5001C23.7469 14.883 22.8726 17.1826 21.2917 18.9657C19.7109 20.7488 17.5326 21.8922 15.1671 22.1807C15.1145 22.1867 15.0611 22.1814 15.0107 22.1653C14.9602 22.1491 14.9137 22.1224 14.8743 22.087C14.8348 22.0516 14.8034 22.0082 14.782 21.9597C14.7605 21.9112 14.7496 21.8587 14.75 21.8057V14.7501H17C17.1028 14.7503 17.2045 14.7294 17.2989 14.6886C17.3933 14.6479 17.4783 14.5882 17.5487 14.5132C17.619 14.4382 17.6732 14.3495 17.7078 14.2527C17.7424 14.1559 17.7568 14.053 17.75 13.9504C17.7334 13.7576 17.6444 13.5781 17.5009 13.4482C17.3574 13.3183 17.1701 13.2475 16.9765 13.2501H14.75V11.0001C14.75 10.6023 14.908 10.2207 15.1893 9.93944C15.4706 9.65813 15.8521 9.5001 16.25 9.5001H17.75C17.8528 9.50032 17.9545 9.47941 18.0489 9.43865C18.1433 9.39789 18.2283 9.33816 18.2987 9.26316C18.369 9.18817 18.4232 9.09951 18.4578 9.0027C18.4924 8.9059 18.5068 8.803 18.5 8.70041C18.4834 8.50722 18.3941 8.32752 18.2502 8.19755C18.1063 8.06757 17.9185 7.99701 17.7246 8.0001H16.25C15.4543 8.0001 14.6912 8.31617 14.1286 8.87878C13.566 9.44139 13.25 10.2044 13.25 11.0001V13.2501H11C10.8971 13.2499 10.7954 13.2708 10.701 13.3115C10.6066 13.3523 10.5216 13.412 10.4513 13.487C10.3809 13.562 10.3268 13.6507 10.2921 13.7475C10.2575 13.8443 10.2431 13.9472 10.25 14.0498C10.2665 14.243 10.3558 14.4227 10.4997 14.5527C10.6436 14.6826 10.8314 14.7532 11.0253 14.7501H13.25V21.8076C13.2503 21.8605 13.2394 21.9129 13.218 21.9613C13.1967 22.0097 13.1653 22.0531 13.126 22.0885C13.0866 22.1239 13.0403 22.1506 12.9899 22.1668C12.9395 22.183 12.8863 22.1884 12.8337 22.1826C10.405 21.8868 8.1758 20.69 6.5874 18.829C4.99901 16.9681 4.16716 14.5786 4.25652 12.1335C4.44402 7.07104 8.54464 2.95541 13.6109 2.75854C14.9225 2.70773 16.231 2.92199 17.4579 3.3885C18.6848 3.85502 19.8051 4.5642 20.7516 5.47363C21.6981 6.38306 22.4515 7.47405 22.9667 8.68136C23.4819 9.88866 23.7483 11.1875 23.75 12.5001Z" fill="white"/>
</g>
<defs>
<filter id="filter0_d_828_7966" x="-2" y="0.5" width="32" height="32" filterUnits="userSpaceOnUse" color-interpolation-filters="sRGB">
<feFlood flood-opacity="0" result="BackgroundImageFix"/>
<feColorMatrix in="SourceAlpha" type="matrix" values="0 0 0 0 0 0 0 0 0 0 0 0 0 0 0 0 0 0 127 0" result="hardAlpha"/>
<feOffset dy="4"/>
<feGaussianBlur stdDeviation="2"/>
<feComposite in2="hardAlpha" operator="out"/>
<feColorMatrix type="matrix" values="0 0 0 0 0 0 0 0 0 0 0 0 0 0 0 0 0 0 0.02 0"/>
<feBlend mode="normal" in2="BackgroundImageFix" result="effect1_dropShadow_828_7966"/>
<feBlend mode="normal" in="SourceGraphic" in2="effect1_dropShadow_828_7966" result="shape"/>
</filter>
</defs>
</svg>
