<svg width="15" height="16" viewBox="0 0 15 16" fill="none" xmlns="http://www.w3.org/2000/svg">
<g id="PaperPlaneTilt" clip-path="url(#clip0_1254_2949)">
<path id="Vector" d="M13.3195 2.66085C13.2016 2.54304 13.0545 2.45878 12.8932 2.41676C12.7319 2.37474 12.5623 2.37647 12.4019 2.42179H12.3931L1.14665 5.83429C0.963581 5.88694 0.80089 5.9941 0.680246 6.14152C0.559602 6.28894 0.486729 6.46962 0.47133 6.65949C0.455932 6.84936 0.498739 7.03941 0.594052 7.20434C0.689365 7.36928 0.83266 7.50126 1.00486 7.58272L6.02165 9.9587L8.39763 14.9755C8.47265 15.1362 8.59206 15.272 8.74177 15.367C8.89148 15.462 9.06525 15.5122 9.24255 15.5116C9.26951 15.5116 9.29646 15.5105 9.32341 15.5081C9.51261 15.4928 9.6926 15.42 9.83923 15.2994C9.98586 15.1789 10.0921 15.0164 10.1437 14.8337L13.5539 3.58722C13.5539 3.58429 13.5539 3.58136 13.5539 3.57843C13.5998 3.41845 13.6023 3.24913 13.5611 3.08787C13.5199 2.92661 13.4365 2.77922 13.3195 2.66085ZM9.24783 14.5653L9.2449 14.5735L6.93865 9.70499L9.70662 6.93643C9.79081 6.84781 9.83706 6.7298 9.83549 6.60757C9.83393 6.48534 9.78468 6.36855 9.69824 6.28212C9.6118 6.19568 9.49501 6.14643 9.37278 6.14486C9.25055 6.1433 9.13254 6.18954 9.04392 6.27374L6.27536 9.04171L1.40622 6.73546H1.41443L12.6562 3.32413L9.24783 14.5653Z" fill="#9194A6"/>
</g>
<defs>
<clipPath id="clip0_1254_2949">
<rect width="15" height="15" fill="white" transform="translate(0 0.980469)"/>
</clipPath>
</defs>
</svg>
