<svg width="15" height="16" viewBox="0 0 15 16" fill="none" xmlns="http://www.w3.org/2000/svg">
<g id="PaperPlaneTilt" clip-path="url(#clip0_1256_3712)">
<path id="Vector" d="M13.3195 2.18062C13.2016 2.06281 13.0545 1.97856 12.8932 1.93654C12.7319 1.89451 12.5623 1.89625 12.4019 1.94156H12.3931L1.14665 5.35406C0.963581 5.40671 0.80089 5.51388 0.680246 5.6613C0.559602 5.80872 0.486729 5.98939 0.47133 6.17926C0.455932 6.36913 0.498739 6.55919 0.594052 6.72412C0.689365 6.88905 0.83266 7.02104 1.00486 7.1025L6.02165 9.47848L8.39763 14.4953C8.47265 14.6559 8.59206 14.7918 8.74177 14.8868C8.89148 14.9818 9.06525 15.032 9.24255 15.0314C9.26951 15.0314 9.29646 15.0302 9.32341 15.0279C9.51261 15.0126 9.6926 14.9398 9.83923 14.8192C9.98586 14.6987 10.0921 14.5361 10.1437 14.3535L13.5539 3.10699C13.5539 3.10406 13.5539 3.10113 13.5539 3.0982C13.5998 2.93822 13.6023 2.7689 13.5611 2.60764C13.5199 2.44638 13.4365 2.299 13.3195 2.18062ZM9.24783 14.0851L9.2449 14.0933L6.93865 9.22476L9.70662 6.45621C9.79081 6.36759 9.83706 6.24958 9.83549 6.12735C9.83393 6.00512 9.78468 5.88833 9.69824 5.80189C9.6118 5.71545 9.49501 5.6662 9.37278 5.66464C9.25055 5.66307 9.13254 5.70932 9.04392 5.79351L6.27536 8.56148L1.40622 6.25523H1.41443L12.6562 2.84391L9.24783 14.0851Z" fill="#D9D9D9"/>
</g>
<defs>
<clipPath id="clip0_1256_3712">
<rect width="15" height="15" fill="white" transform="translate(0 0.5)"/>
</clipPath>
</defs>
</svg>
