<svg width="24" height="24" viewBox="0 0 24 24" fill="none" xmlns="http://www.w3.org/2000/svg">
<g id="ShareNetwork">
<path id="Vector" d="M19.8752 18.7502C19.8753 19.2428 19.7675 19.7294 19.5594 20.1759C19.3514 20.6225 19.0482 21.018 18.671 21.3349C18.2938 21.6517 17.8518 21.8821 17.3761 22.01C16.9003 22.1378 16.4024 22.16 15.9172 22.0749C15.432 21.9898 14.9713 21.7995 14.5675 21.5174C14.1636 21.2353 13.8264 20.8682 13.5796 20.442C13.3327 20.0157 13.1822 19.5405 13.1385 19.0499C13.0948 18.5592 13.1591 18.0649 13.3268 17.6017L8.358 14.4095C7.88345 14.875 7.282 15.19 6.62911 15.315C5.97622 15.44 5.30097 15.3693 4.68806 15.112C4.07515 14.8547 3.55189 14.422 3.18391 13.8684C2.81593 13.3148 2.61963 12.6649 2.61963 12.0002C2.61963 11.3354 2.81593 10.6855 3.18391 10.1319C3.55189 9.57828 4.07515 9.14568 4.68806 8.88833C5.30097 8.63099 5.97622 8.56038 6.62911 8.68534C7.282 8.81031 7.88345 9.1253 8.358 9.59079L13.3268 6.40329C13.0422 5.62146 13.0558 4.7622 13.3647 3.98971C13.6737 3.21722 14.2565 2.58565 15.0017 2.2157C15.7469 1.84574 16.6023 1.76333 17.4045 1.98421C18.2066 2.2051 18.8992 2.71379 19.35 3.41309C19.8008 4.11239 19.9781 4.95326 19.8481 5.77503C19.718 6.5968 19.2898 7.34185 18.6451 7.86781C18.0005 8.39378 17.1846 8.66378 16.3535 8.62622C15.5223 8.58867 14.7342 8.24619 14.1396 7.66423L9.17082 10.8564C9.43935 11.5985 9.43935 12.4112 9.17082 13.1533L14.1396 16.3455C14.614 15.8812 15.2147 15.5671 15.8667 15.4425C16.5187 15.3179 17.193 15.3884 17.8051 15.645C18.4173 15.9017 18.9402 16.3331 19.3084 16.8855C19.6766 17.4378 19.8737 18.0864 19.8752 18.7502Z" fill="#061628"/>
</g>
</svg>
