<svg width="29" height="31" viewBox="0 0 29 31" fill="none" xmlns="http://www.w3.org/2000/svg">
<g id="TwitterLogo" filter="url(#filter0_d_828_7970)">
<path id="Vector" d="M24.0308 7.78056L21.2277 10.5837C20.6614 17.1481 15.1255 22.2499 8.50017 22.2499C7.13892 22.2499 6.01673 22.0343 5.16454 21.6087C4.47736 21.2646 4.19611 20.8962 4.12579 20.7912C4.0631 20.6972 4.02246 20.5902 4.00692 20.4782C3.99138 20.3663 4.00133 20.2523 4.03604 20.1448C4.07075 20.0372 4.12931 19.9389 4.20735 19.8572C4.2854 19.7754 4.3809 19.7124 4.48673 19.6727C4.51111 19.6634 6.75923 18.7999 8.18704 17.1565C7.39522 16.5055 6.70399 15.741 6.13579 14.8877C4.97329 13.1618 3.67204 10.1637 4.07329 5.68337C4.08601 5.54101 4.13915 5.40525 4.22644 5.29207C4.31373 5.17889 4.43154 5.09301 4.566 5.04454C4.70047 4.99608 4.84598 4.98704 4.9854 5.01851C5.12483 5.04997 5.25236 5.12061 5.35298 5.22212C5.38579 5.25494 8.47298 8.32525 12.2474 9.32087V8.74994C12.2459 8.15124 12.3643 7.55831 12.5955 7.00606C12.8267 6.45381 13.1661 5.95341 13.5936 5.53431C14.0088 5.11968 14.5029 4.79241 15.0466 4.57182C15.5904 4.35123 16.1728 4.24178 16.7595 4.24994C17.5466 4.2577 18.3183 4.46899 18.9996 4.86325C19.6808 5.25752 20.2485 5.82135 20.6474 6.49994H23.5002C23.6486 6.49982 23.7937 6.54374 23.9172 6.62615C24.0406 6.70855 24.1368 6.82573 24.1936 6.96284C24.2505 7.09996 24.2653 7.25085 24.2363 7.39642C24.2073 7.54198 24.1358 7.67567 24.0308 7.78056Z" fill="white"/>
</g>
<defs>
<filter id="filter0_d_828_7970" x="-3" y="0.5" width="32" height="32" filterUnits="userSpaceOnUse" color-interpolation-filters="sRGB">
<feFlood flood-opacity="0" result="BackgroundImageFix"/>
<feColorMatrix in="SourceAlpha" type="matrix" values="0 0 0 0 0 0 0 0 0 0 0 0 0 0 0 0 0 0 127 0" result="hardAlpha"/>
<feOffset dy="4"/>
<feGaussianBlur stdDeviation="2"/>
<feComposite in2="hardAlpha" operator="out"/>
<feColorMatrix type="matrix" values="0 0 0 0 0 0 0 0 0 0 0 0 0 0 0 0 0 0 0.02 0"/>
<feBlend mode="normal" in2="BackgroundImageFix" result="effect1_dropShadow_828_7970"/>
<feBlend mode="normal" in="SourceGraphic" in2="effect1_dropShadow_828_7970" result="shape"/>
</filter>
</defs>
</svg>
