<svg width="56" height="56" viewBox="0 0 56 56" fill="none" xmlns="http://www.w3.org/2000/svg">
<rect width="56" height="56" rx="28" fill="#25D366"/>
<path d="M37.4001 18.5467C36.1777 17.3119 34.7216 16.3329 33.1169 15.6668C31.5122 15.0006 29.7909 14.6607 28.0534 14.6667C20.7734 14.6667 14.8401 20.6 14.8401 27.88C14.8401 30.2134 15.4534 32.48 16.6001 34.48L14.7334 41.3334L21.7334 39.4934C23.6667 40.5467 25.8401 41.1067 28.0534 41.1067C35.3334 41.1067 41.2667 35.1734 41.2667 27.8934C41.2667 24.36 39.8934 21.04 37.4001 18.5467ZM28.0534 38.8667C26.0801 38.8667 24.1467 38.3334 22.4534 37.3334L22.0534 37.0934L17.8934 38.1867L19.0001 34.1334L18.7334 33.72C17.6371 31.9693 17.0549 29.9457 17.0534 27.88C17.0534 21.8267 21.9867 16.8934 28.0401 16.8934C30.9734 16.8934 33.7334 18.04 35.8001 20.12C36.8234 21.1387 37.6343 22.3503 38.1859 23.6846C38.7375 25.019 39.0188 26.4495 39.0134 27.8934C39.0401 33.9467 34.1067 38.8667 28.0534 38.8667ZM34.0801 30.6534C33.7467 30.4934 32.1201 29.6934 31.8267 29.5734C31.5201 29.4667 31.3067 29.4134 31.0801 29.7334C30.8534 30.0667 30.2267 30.8134 30.0401 31.0267C29.8534 31.2534 29.6534 31.28 29.3201 31.1067C28.9867 30.9467 27.9201 30.5867 26.6667 29.4667C25.6801 28.5867 25.0267 27.5067 24.8267 27.1734C24.6401 26.84 24.8001 26.6667 24.9734 26.4934C25.1201 26.3467 25.3067 26.1067 25.4667 25.92C25.6267 25.7334 25.6934 25.5867 25.8001 25.3734C25.9067 25.1467 25.8534 24.96 25.7734 24.8C25.6934 24.64 25.0267 23.0134 24.7601 22.3467C24.4934 21.7067 24.2134 21.7867 24.0134 21.7734H23.3734C23.1467 21.7734 22.8001 21.8534 22.4934 22.1867C22.2001 22.52 21.3467 23.32 21.3467 24.9467C21.3467 26.5734 22.5334 28.1467 22.6934 28.36C22.8534 28.5867 25.0267 31.92 28.3334 33.3467C29.1201 33.6934 29.7334 33.8934 30.2134 34.04C31.0001 34.2934 31.7201 34.2534 32.2934 34.1734C32.9334 34.08 34.2534 33.3734 34.5201 32.6C34.8001 31.8267 34.8001 31.1734 34.7067 31.0267C34.6134 30.88 34.4134 30.8134 34.0801 30.6534Z" fill="white"/>
</svg>
