<svg width="30" height="29" viewBox="0 0 30 29" fill="none" xmlns="http://www.w3.org/2000/svg">
<g id="YoutubeLogo" filter="url(#filter0_d_828_7972)">
<path id="Vector" d="M24.9684 7.0175C24.8801 6.67189 24.7109 6.35224 24.4747 6.08491C24.2385 5.81758 23.9421 5.61024 23.61 5.48C20.3962 4.23875 15.2812 4.25 15 4.25C14.7188 4.25 9.60375 4.23875 6.39 5.48C6.0579 5.61024 5.76153 5.81758 5.52534 6.08491C5.28915 6.35224 5.1199 6.67189 5.03156 7.0175C4.78875 7.95313 4.5 9.66313 4.5 12.5C4.5 15.3369 4.78875 17.0469 5.03156 17.9825C5.11977 18.3283 5.28895 18.6481 5.52515 18.9156C5.76136 19.1831 6.0578 19.3906 6.39 19.5209C9.46875 20.7088 14.2875 20.75 14.9381 20.75H15.0619C15.7125 20.75 20.5341 20.7088 23.61 19.5209C23.9422 19.3906 24.2386 19.1831 24.4748 18.9156C24.711 18.6481 24.8802 18.3283 24.9684 17.9825C25.2113 17.045 25.5 15.3369 25.5 12.5C25.5 9.66313 25.2113 7.95313 24.9684 7.0175ZM18.2081 12.8122L13.7081 15.8122C13.6516 15.8499 13.586 15.8715 13.5181 15.8748C13.4503 15.8781 13.3829 15.8629 13.323 15.8309C13.2631 15.7988 13.2131 15.7511 13.1782 15.6928C13.1434 15.6346 13.125 15.5679 13.125 15.5V9.5C13.125 9.4321 13.1434 9.36545 13.1782 9.30718C13.2131 9.24892 13.2631 9.20121 13.323 9.16916C13.3829 9.13711 13.4503 9.12191 13.5181 9.1252C13.586 9.12849 13.6516 9.15013 13.7081 9.18782L18.2081 12.1878C18.2596 12.222 18.3017 12.2685 18.3309 12.3229C18.3601 12.3774 18.3754 12.4382 18.3754 12.5C18.3754 12.5618 18.3601 12.6226 18.3309 12.6771C18.3017 12.7315 18.2596 12.778 18.2081 12.8122Z" fill="white"/>
</g>
<defs>
<filter id="filter0_d_828_7972" x="-1" y="0.5" width="32" height="32" filterUnits="userSpaceOnUse" color-interpolation-filters="sRGB">
<feFlood flood-opacity="0" result="BackgroundImageFix"/>
<feColorMatrix in="SourceAlpha" type="matrix" values="0 0 0 0 0 0 0 0 0 0 0 0 0 0 0 0 0 0 127 0" result="hardAlpha"/>
<feOffset dy="4"/>
<feGaussianBlur stdDeviation="2"/>
<feComposite in2="hardAlpha" operator="out"/>
<feColorMatrix type="matrix" values="0 0 0 0 0 0 0 0 0 0 0 0 0 0 0 0 0 0 0.02 0"/>
<feBlend mode="normal" in2="BackgroundImageFix" result="effect1_dropShadow_828_7972"/>
<feBlend mode="normal" in="SourceGraphic" in2="effect1_dropShadow_828_7972" result="shape"/>
</filter>
</defs>
</svg>
